<?xml version="1.0" encoding="utf-8"?>
<!-- Generator: Adobe Illustrator 26.0.1, SVG Export Plug-In . SVG Version: 6.00 Build 0)  -->
<svg version="1.1" id="Layer_1" xmlns="http://www.w3.org/2000/svg" xmlns:xlink="http://www.w3.org/1999/xlink" x="0px" y="0px"
	 viewBox="0 0 516.7 330.7" style="enable-background:new 0 0 516.7 330.7;" xml:space="preserve">
<style type="text/css">
	.st0{fill:#648E55;}
	.st1{fill:#404137;}
	.st2{fill:url(#SVGID_1_);}
	.st3{fill:url(#SVGID_00000018208083125249387780000015450270929126196130_);}
	.st4{fill:url(#SVGID_00000168080500855370471850000000298353718422753199_);}
	.st5{fill:url(#SVGID_00000111893089344735369730000018119210154119735471_);}
	.st6{fill:url(#SVGID_00000089569978436095737730000010211246520039490447_);}
</style>
<g>
	<g>
		<path class="st0" d="M260.4,200.7c-1.4,0-2.8,0.3-4,1l-38.7,22.4c-2.5,1.4-4,4.2-4,7.1v44.6c0,2.9,1.5,5.6,4,7.1l10.1,5.8
			c4.9,2.4,6.7,2.4,9,2.4c7.3,0,11.4-4.4,11.4-12.1v-44c0-0.6-0.5-1.1-1.2-1.1h-4.9c-0.6,0-1.2,0.5-1.2,1.1V279
			c0,3.4-3.5,6.8-9.3,3.9l-10.5-6.2c-0.4-0.2-0.7-0.6-0.7-1v-44.6c0-0.4,0.3-0.9,0.7-1.1l38.6-22.3c0.4-0.2,0.8-0.2,1.2,0l38.6,22.3
			c0.4,0.2,0.7,0.6,0.7,1.1v44.6c0,0.4-0.2,0.9-0.6,1.1L261,299.2c-0.3,0.2-0.8,0.2-1.2,0l-9.9-5.9c-0.3-0.2-0.7-0.2-1,0
			c-2.7,1.6-3.3,1.7-5.8,2.6c-0.6,0.2-1.6,0.6,0.3,1.6l13,7.7c1.2,0.7,2.6,1.1,4,1.1c1.4,0,2.8-0.3,4-1.1l38.7-22.3
			c2.5-1.5,4-4.2,4-7.1v-44.6c0-2.9-1.5-5.6-4-7.1l-38.7-22.4C263.3,201,261.9,200.7,260.4,200.7L260.4,200.7z M270.8,232.6
			c-11,0-17.6,4.7-17.6,12.5c0,8.5,6.5,10.8,17.1,11.8c12.7,1.2,13.6,3.1,13.6,5.6c0,4.3-3.4,6.2-11.6,6.2
			c-10.2,0-12.5-2.6-13.2-7.7c-0.1-0.5-0.5-1-1.1-1h-5c-0.6,0-1.1,0.5-1.2,1.2c0,6.5,3.5,14.2,20.5,14.2c12.3,0,19.3-4.8,19.3-13.2
			c0-8.3-5.7-10.6-17.6-12.2c-12-1.6-13.2-2.4-13.2-5.2c0-2.3,1-5.4,9.9-5.4c7.9,0,10.9,1.7,12.1,7.1c0.1,0.5,0.5,0.9,1.1,0.9h5
			c0.3,0,0.6-0.2,0.8-0.4c0.2-0.2,0.4-0.5,0.3-0.8C289.3,237,283.2,232.6,270.8,232.6L270.8,232.6z"/>
		<path class="st1" d="M337.9,35.2c-0.4,0-0.9,0.1-1.2,0.3c-0.8,0.4-1.2,1.3-1.2,2.1v62.9c0,0.6-0.3,1.2-0.8,1.5
			c-0.5,0.3-1.2,0.3-1.7,0l-10.3-5.9c-1.5-0.9-3.4-0.9-4.9,0l-41,23.7c-1.5,0.9-2.5,2.6-2.5,4.4v47.4c0,1.8,0.9,3.4,2.5,4.3l41,23.7
			c1.5,0.9,3.4,0.9,4.9,0l41-23.7c1.5-0.9,2.5-2.5,2.5-4.3V53.4c0-1.8-1-3.5-2.5-4.4l-24.4-13.7C338.7,35.2,338.3,35.2,337.9,35.2
			L337.9,35.2z M73.9,94.3c-0.8,0-1.5,0.2-2.2,0.6l-41,23.7c-1.5,0.9-2.5,2.5-2.5,4.3l0.1,63.6c0,0.9,0.5,1.7,1.2,2.1
			c0.8,0.5,1.7,0.5,2.5,0l24.3-14c1.5-0.9,2.5-2.5,2.5-4.3v-29.7c0-1.8,0.9-3.4,2.5-4.3l10.4-6c0.7-0.4,1.6-0.7,2.5-0.7
			c0.9,0,1.7,0.2,2.5,0.7l10.4,6c1.5,0.9,2.5,2.5,2.5,4.3v29.7c0,1.8,1,3.4,2.5,4.3l24.3,14c0.8,0.5,1.7,0.5,2.5,0
			c0.8-0.4,1.2-1.3,1.2-2.1l0.1-63.6c0-1.8-0.9-3.4-2.5-4.3l-41-23.7c-0.7-0.4-1.4-0.5-2.2-0.6L73.9,94.3L73.9,94.3z M442.6,94.9
			c-0.9,0-1.7,0.2-2.5,0.7l-41,23.7c-1.5,0.9-2.5,2.5-2.5,4.3v47.4c0,1.8,1,3.4,2.5,4.3l40.7,23.2c1.5,0.9,3.3,0.9,4.9,0.1
			l24.7-13.7c0.8-0.4,1.3-1.2,1.3-2.1c0-0.9-0.5-1.7-1.2-2.1l-41.3-23.7c-0.8-0.4-1.3-1.3-1.3-2.2v-14.8c0-0.9,0.5-1.7,1.3-2.1
			l12.8-7.4c0.8-0.4,1.7-0.4,2.5,0l12.8,7.4c0.8,0.4,1.2,1.3,1.2,2.1v11.7c0,0.9,0.5,1.7,1.2,2.1c0.8,0.4,1.7,0.4,2.5,0l24.6-14.3
			c1.5-0.9,2.5-2.5,2.5-4.3v-11.4c0-1.8-0.9-3.4-2.5-4.3l-40.8-23.7C444.4,95.1,443.5,94.9,442.6,94.9L442.6,94.9z M320,130.2
			c0.2,0,0.5,0.1,0.7,0.2l14.1,8.1c0.4,0.2,0.7,0.6,0.7,1.1v16.3c0,0.4-0.3,0.8-0.7,1.1l-14.1,8.1c-0.4,0.2-0.9,0.2-1.2,0l-14.1-8.1
			c-0.4-0.2-0.7-0.6-0.7-1.1v-16.3c0-0.4,0.3-0.8,0.7-1.1l14.1-8.1C319.6,130.3,319.7,130.2,320,130.2L320,130.2L320,130.2z"/>
		<path class="st0" d="M442.6,136.9c-0.2,0-0.3,0-0.5,0.1l-7.9,4.6c-0.3,0.2-0.5,0.5-0.5,0.8v9c0,0.3,0.2,0.7,0.5,0.8l7.9,4.5
			c0.3,0.2,0.6,0.2,0.9,0l7.9-4.5c0.3-0.2,0.5-0.5,0.5-0.8v-9c0-0.3-0.2-0.7-0.5-0.8L443,137C442.8,136.9,442.7,136.9,442.6,136.9
			L442.6,136.9z"/>
	</g>
	<g>
		<linearGradient id="SVGID_1_" gradientUnits="userSpaceOnUse" x1="193.6893" y1="106.3291" x2="232.7569" y2="131.444">
			<stop  offset="0" style="stop-color:#4C9842"/>
			<stop  offset="1" style="stop-color:#54A345"/>
		</linearGradient>
		<path class="st2" d="M241.7,120.2l-14.1,25.2l-29.2-50.3c0.4,0.1,0.9,0.3,1.3,0.5l40.8,23.6C241,119.4,241.4,119.8,241.7,120.2z"
			/>
		
			<linearGradient id="SVGID_00000164491250621981375460000012959337881863026319_" gradientUnits="userSpaceOnUse" x1="234.3506" y1="129.6683" x2="241.482" y2="163.3098">
			<stop  offset="0" style="stop-color:#3F873F"/>
			<stop  offset="1" style="stop-color:#3F8F3B"/>
		</linearGradient>
		<path style="fill:url(#SVGID_00000164491250621981375460000012959337881863026319_);" d="M243,123.5v47.1c0,0.4,0,0.7-0.1,1
			l-1.7-3l-13.5-23.2v0l14.1-25.2C242.5,121.1,243,122.2,243,123.5z"/>
		
			<linearGradient id="SVGID_00000043458967808784274930000014522729380140733114_" gradientUnits="userSpaceOnUse" x1="161.2928" y1="126.5779" x2="154.3164" y2="169.8313">
			<stop  offset="0" style="stop-color:#3F8E3C"/>
			<stop  offset="1" style="stop-color:#3DAA2E"/>
		</linearGradient>
		<path style="fill:url(#SVGID_00000043458967808784274930000014522729380140733114_);" d="M168.6,145.8l-16.2,27.8
			c-0.6-0.8-1-1.9-1-3v-47.1c0-1.3,0.5-2.5,1.3-3.4c0.3-0.4,0.7-0.7,1.2-0.9l0.1-0.1l1.4,2.5L168.6,145.8z"/>
		
			<linearGradient id="SVGID_00000003805079587941959290000008189690363719331728_" gradientUnits="userSpaceOnUse" x1="160.7753" y1="160.0137" x2="197.0524" y2="182.5706">
			<stop  offset="0" style="stop-color:#3F873F"/>
			<stop  offset="1" style="stop-color:#3F873F"/>
		</linearGradient>
		<path style="fill:url(#SVGID_00000003805079587941959290000008189690363719331728_);" d="M197.9,199c-1.1,0.2-2.2,0-3.2-0.6
			l-40.8-23.6c-0.6-0.3-1.1-0.8-1.5-1.3l16.2-27.8L197.9,199z"/>
		
			<linearGradient id="SVGID_00000153681070715613435920000003355290774332840106_" gradientUnits="userSpaceOnUse" x1="153.7686" y1="119.4609" x2="241.6548" y2="174.108">
			<stop  offset="0" style="stop-color:#6ABF4B"/>
			<stop  offset="1" style="stop-color:#3F873F"/>
		</linearGradient>
		<path style="fill:url(#SVGID_00000153681070715613435920000003355290774332840106_);" d="M242.9,171.6c-0.3,1.4-1.1,2.5-2.4,3.3
			l-40.8,23.6c-0.6,0.3-1.2,0.5-1.8,0.6l-29.3-53.3l-13.3-24.2l-1.4-2.5l40.7-23.5c1.1-0.7,2.5-0.8,3.7-0.5l29.2,50.3v0l13.5,23.2
			L242.9,171.6z"/>
	</g>
</g>
</svg>
